<svg xmlns="http://www.w3.org/2000/svg" x="0px" y="0px"
width="50" height="50"
viewBox="0 0 172 172"
style=" fill:#000000;"><g fill="none" fill-rule="nonzero" stroke="none" stroke-width="1" stroke-linecap="butt" stroke-linejoin="miter" stroke-miterlimit="10" stroke-dasharray="" stroke-dashoffset="0" font-family="none" font-weight="none" font-size="none" text-anchor="none" style="mix-blend-mode: normal"><path d="M0,172v-172h172v172z" fill="none"></path><path d="M86,172c-47.49649,0 -86,-38.50351 -86,-86v0c0,-47.49649 38.50351,-86 86,-86v0c47.49649,0 86,38.50351 86,86v0c0,47.49649 -38.50351,86 -86,86z" fill="#5c2de1"></path><g fill="#ffffff"><path d="M135.43007,36.56993c0,0 -37.06331,-0.08869 -65.95931,28.80731c-1.33412,1.33412 -2.49576,2.7865 -3.5475,4.28925c-5.12318,-0.40963 -12.96547,-0.27581 -16.97962,3.741c-9.37056,9.37056 -12.49688,24.99375 -12.49688,24.99375l20.64,-2.95088v7.07888l12.384,12.384h7.07888l-2.95088,20.64c0,0 15.62319,-3.12632 24.99375,-12.49688c4.01681,-4.01415 4.15063,-11.85644 3.741,-16.97962c1.50275,-1.05174 2.95512,-2.21338 4.28925,-3.5475c28.896,-28.896 28.80731,-65.95931 28.80731,-65.95931zM102.49476,61.24924c4.56144,0 8.256,3.69456 8.256,8.256c0,4.56144 -3.69456,8.256 -8.256,8.256c-4.56144,0 -8.256,-3.69456 -8.256,-8.256c0,-4.56144 3.69456,-8.256 8.256,-8.256zM53.78113,106.64112c-1.56864,0.4128 -3.05517,1.20079 -4.28119,2.42681c-5.63885,5.63885 -4.74075,18.16481 -4.74075,18.16481c0,0 12.4436,0.9724 18.15675,-4.74075c1.22602,-1.22602 2.01401,-2.72061 2.42681,-4.28925l-1.88662,-1.88662c-0.18576,0.26419 -0.30076,0.57095 -0.54019,0.80625c-4.0248,4.0248 -10.062,2.01563 -10.062,2.01563c0,0 -2.0133,-6.0372 2.01562,-10.062c0.23942,-0.23942 0.534,-0.3503 0.79819,-0.54019z"></path></g></g></svg>