<svg xmlns="http://www.w3.org/2000/svg" x="0px" y="0px"
width="50" height="50"
viewBox="0 0 172 172"
style=" fill:#000000;"><g fill="none" fill-rule="nonzero" stroke="none" stroke-width="1" stroke-linecap="butt" stroke-linejoin="miter" stroke-miterlimit="10" stroke-dasharray="" stroke-dashoffset="0" font-family="none" font-weight="none" font-size="none" text-anchor="none" style="mix-blend-mode: normal"><path d="M0,172v-172h172v172z" fill="none"></path><path d="M51.6,172c-28.49789,0 -51.6,-23.10211 -51.6,-51.6v-68.8c0,-28.49789 23.10211,-51.6 51.6,-51.6h68.8c28.49789,0 51.6,23.10211 51.6,51.6v68.8c0,28.49789 -23.10211,51.6 -51.6,51.6z" fill="#5c2de1"></path><g fill="#ffffff"><path d="M140.92914,31.07086c0,0 -41.18146,-0.09854 -73.28813,32.00812c-1.48236,1.48236 -2.77307,3.09611 -3.94167,4.76583c-5.69243,-0.45514 -14.40608,-0.30645 -18.86625,4.15667c-10.41173,10.41173 -13.88542,27.77084 -13.88542,27.77084l22.93333,-3.27875v7.86542l13.76,13.76h7.86542l-3.27875,22.93333c0,0 17.3591,-3.47368 27.77084,-13.88542c4.46312,-4.46017 4.61181,-13.17382 4.15667,-18.86625c1.66972,-1.1686 3.28347,-2.45931 4.76583,-3.94167c32.10667,-32.10667 32.00813,-73.28812 32.00813,-73.28812zM104.33435,58.49232c5.06827,0 9.17333,4.10507 9.17333,9.17333c0,5.06827 -4.10507,9.17333 -9.17333,9.17333c-5.06827,0 -9.17333,-4.10507 -9.17333,-9.17333c0,-5.06827 4.10507,-9.17333 9.17333,-9.17333zM50.2081,108.92773c-1.74293,0.45867 -3.39464,1.33422 -4.75688,2.69646c-6.26539,6.26539 -5.2675,20.18313 -5.2675,20.18313c0,0 13.82622,1.08045 20.17417,-5.2675c1.36224,-1.36224 2.23779,-3.0229 2.69646,-4.76584l-2.09625,-2.09625c-0.2064,0.29355 -0.33418,0.63439 -0.60021,0.89583c-4.472,4.472 -11.18,2.23959 -11.18,2.23959c0,0 -2.237,-6.708 2.23958,-11.18c0.26603,-0.26603 0.59333,-0.38922 0.88688,-0.60021z"></path></g></g></svg>